<?xml version="1.0" encoding="UTF-8" standalone="no"?>
<svg
   xmlns:dc="http://purl.org/dc/elements/1.1/"
   xmlns:cc="http://creativecommons.org/ns#"
   xmlns:rdf="http://www.w3.org/1999/02/22-rdf-syntax-ns#"
   xmlns:svg="http://www.w3.org/2000/svg"
   xmlns="http://www.w3.org/2000/svg"
   xmlns:sodipodi="http://sodipodi.sourceforge.net/DTD/sodipodi-0.dtd"
   xmlns:inkscape="http://www.inkscape.org/namespaces/inkscape"
   id="Layer_1"
   data-name="Layer 1"
   viewBox="0 0 546.41 261.59"
   version="1.1"
   sodipodi:docname="lshtm-black.svg"
   inkscape:version="0.92.3 (2405546, 2018-03-11)">
  <metadata
     id="metadata215">
    <rdf:RDF>
      <cc:Work
         rdf:about="">
        <dc:format>image/svg+xml</dc:format>
        <dc:type
           rdf:resource="http://purl.org/dc/dcmitype/StillImage" />
        <dc:title>LSHTM_Revised_Original_Logo_White</dc:title>
      </cc:Work>
    </rdf:RDF>
  </metadata>
  <sodipodi:namedview
     pagecolor="#ffffff"
     bordercolor="#666666"
     borderopacity="1"
     objecttolerance="10"
     gridtolerance="10"
     guidetolerance="10"
     inkscape:pageopacity="0"
     inkscape:pageshadow="2"
     inkscape:window-width="1920"
     inkscape:window-height="1052"
     id="namedview213"
     showgrid="false"
     inkscape:zoom="0.62590366"
     inkscape:cx="273.20499"
     inkscape:cy="130.795"
     inkscape:window-x="1920"
     inkscape:window-y="0"
     inkscape:window-maximized="1"
     inkscape:current-layer="Layer_1" />
  <defs
     id="defs4">
    <style
       id="style2">.cls-1{fill:#fff;}</style>
  </defs>
  <title
     id="title6">LSHTM_Revised_Original_Logo_White</title>
  <line
     class="cls-1"
     x1="281.28"
     y1="18.95"
     x2="281.28"
     y2="20.2"
     id="line8"
     style="fill:#000000" />
  <path
     class="cls-1"
     d="M29.26,59.65H0V58.41H2.17c3,0,4.12-1,4.12-4.32v-29c0-3.47-1-4.91-5.17-4.91H.21V19h19.3V20.2H17.09c-4.25,0-5.37.46-5.37,4.51V54.87c0,1.77.72,2.42,2.62,2.42H24c3.86,0,5-1.51,9.16-7.2H34.3Z"
     id="path10"
     style="fill:#000000" />
  <path
     class="cls-1"
     d="M57.32,60.7c-12.83,0-23.62-8.25-23.62-20.48,0-13,10-22.25,23.95-22.25,12.37,0,23,8.44,23,20.22C80.61,51.41,70,60.7,57.32,60.7M55.95,19.61c-11.52,0-16.1,10.73-16.1,18.58,0,12.24,8.31,20.87,18.84,20.87s15.77-9.42,15.77-18.71c0-12.17-7.72-20.74-18.52-20.74"
     id="path12"
     style="fill:#000000" />
  <path
     class="cls-1"
     d="M123.76,60.11,89.87,24.64V52.72c0,4.71,1,5.69,6.61,5.69v1.24H81.3V58.41h.26c4.06,0,5.37-1.38,5.37-4.39V21.83a9.6,9.6,0,0,0-5.5-1.64V19H91.7l30.82,32.13V25c0-4-1.17-4.71-6.41-4.84V19h15.32V20.2c-4.91,0-6,.85-6,3.4V60.11Z"
     id="path14"
     style="fill:#000000" />
  <path
     class="cls-1"
     d="M140.71,25.49c0-4.25-1.11-5.3-5-5.3h-1.31V19c2.42-.14,5.63-.26,9.22-.39s7.59-.2,11-.2c17.27,0,24.92,8.77,24.92,19.57,0,9.88-7.66,21.72-24.21,21.72H134.43V58.41h1.11c3.53,0,5.17-1,5.17-4.78Zm5.43,29.31c0,2.69.2,3.6,5.36,3.6,8.77,0,12.43-1.25,16.49-5.31A20.17,20.17,0,0,0,173.42,39c0-4.84-1.37-10.21-5.23-14.07-3-3-7.66-5.3-16.82-5.3-2.68,0-4.45.2-5.23.26Z"
     id="path16"
     style="fill:#000000" />
  <path
     class="cls-1"
     d="M207.18,60.7c-12.83,0-23.62-8.25-23.62-20.48,0-13,10-22.25,24-22.25,12.36,0,23,8.44,23,20.22,0,13.22-10.6,22.51-23.29,22.51m-1.37-41.09c-11.52,0-16.1,10.73-16.1,18.58,0,12.24,8.32,20.87,18.84,20.87s15.77-9.42,15.77-18.71c0-12.17-7.72-20.74-18.52-20.74"
     id="path18"
     style="fill:#000000" />
  <path
     class="cls-1"
     d="M281.28,20.2c-4.91,0-6,.85-6,3.4V60.11h-1.7L239.73,24.64V52.72c0,4.71,1,5.69,6.61,5.69v1.24H231.16V58.41h.25c4.06,0,5.37-1.38,5.37-4.39V21.83a9.58,9.58,0,0,0-5.49-1.64V19h10.27l30.82,32.13V25c0-4-1.18-4.71-6.41-4.84V19h15.31"
     id="path20"
     style="fill:#000000" />
  <path
     class="cls-1"
     d="M48.58,253.11V252H48c-3.49,0-4.65-.93-4.65-5.07V222.83c0-3.61.92-4.66,4.42-4.77v-1.11H38.46L24.51,246.3l-14-29.35H1.73v1c2.83.18,3.49.94,3.53,3.12v27C5.26,250.79,4.1,252,.5,252H.27v1.1H13.75V252c-4.95,0-5.87-.88-5.87-5.07V222.07h0l14.82,31H24l14.47-31h0v25.56c0,3-.81,4.37-4.59,4.37h-1.8v1.1Z"
     id="path22"
     style="fill:#000000" />
  <path
     class="cls-1"
     d="M80.14,253.11l.93-8.66H80c-1.45,5-2.67,6.57-6.74,6.57H64.33c-2.15,0-3.14-.52-3.14-3.2V235.45H71c2.38,0,3.49.46,4,4.59h1.1V229H75c-.29,3.37-1.28,4.36-3.38,4.36H61.19v-14.3H73.45c2.09,0,3.54,1,4.3,6h1L78.34,217H50.44v1.1h1.28c3.89,0,4.65,1.39,4.65,4.65v24.53c0,3.49-.81,4.76-5.46,4.76h-.46v1.11Zm37.95-18.37a18,18,0,0,1-4.82,12.56c-3.6,3.6-6.86,4.7-14.64,4.7-4.59,0-4.77-.81-4.77-3.2v-31c.7-.06,2.27-.24,4.65-.24,8.14,0,12.26,2,14.94,4.71,3.43,3.43,4.65,8.2,4.65,12.5m5.46-.93c0-9.59-6.8-17.38-22.14-17.38-3,0-6.57.06-9.77.18s-6,.23-8.19.35v1.1H84.6c3.43,0,4.42.93,4.42,4.71v25c0,3.37-1.45,4.24-4.59,4.24h-1v1.11H102c14.7,0,21.5-10.52,21.5-19.3m2.59,19.3h14.12V252c-4,0-4.94-1.16-4.94-4.59V222.77c0-3.9,1.28-4.71,4.94-4.71V217H126.13v1.1c3.25.17,4.36,1,4.36,4.18V247c0,3.89-.76,4.82-4.36,5Zm49.54-.64a39.22,39.22,0,0,0,3.72-8.49h-1.1c-4,7-9.59,8.6-14.18,8.6-8.83,0-16.39-7.73-16.39-18.25,0-9.76,6-16.8,15.75-16.8,6.34,0,11.34,3.55,13.25,8.95h1.11l-.53-8.43h-.87c-.12.17-.41.35-1,.35-1.8,0-4.93-2.33-12.26-2.33-12.15,0-20.87,8.14-20.87,19.41,0,10.76,8.49,18.55,20.28,18.55,6.86,0,9.42-2.09,13.14-1.57m5.91.64h14.13V252c-4,0-4.94-1.16-4.94-4.59V222.77c0-3.9,1.28-4.71,4.94-4.71V217H181.58v1.1c3.26.17,4.36,1,4.36,4.18V247c0,3.89-.76,4.82-4.36,5Zm61.71-35V217h-13.6v1.1c4.65.12,5.7.76,5.7,4.3V245.5L208,217h-9.13v1.1a8.51,8.51,0,0,1,4.88,1.45v28.6c0,2.67-1.16,3.89-4.77,3.89h-.23v1.11h13.49V252c-4.94,0-5.87-.87-5.87-5.06V222l30.11,31.51H238V221.09c0-2.27.93-3,5.29-3m12.53,29.76V235.45h9.82c2.38,0,3.49.46,4,4.59h1.11V229h-1.11c-.29,3.37-1.28,4.36-3.37,4.36h-10.4v-14.3h12.27c2.09,0,3.54,1,4.29,6h1L273,217h-27.9v1.1h1.28c3.89,0,4.65,1.39,4.65,4.65v24.53c0,3.49-.81,4.76-5.46,4.76H243.9v1.11h30.86l.93-8.66h-1c-1.45,5-2.67,6.57-6.74,6.57h-9c-2.15,0-3.14-.52-3.14-3.2"
     id="path24"
     style="fill:#000000" />
  <path
     class="cls-1"
     d="M23.52,199.65a13.36,13.36,0,0,1-8.61,3.08c-6.2,0-12.31-5.38-12.31-11.78,0-2.79,2.22-6.54,5.24-6.54,1.74,0,5.39,6.44,15.68,15.24M39,203.79h0a22.24,22.24,0,0,1-3,.11,4.25,4.25,0,0,1-1-.21,5.68,5.68,0,0,1-.68-.32l-.14-.08c-.23-.13-.46-.27-.7-.43l-.15-.11-.7-.49-.09-.07-.76-.6-.2-.16-.72-.61-.19-.17-.58-.51-.21-.18-.58-.52c-.77-.69-1.44-1.3-1.93-1.68,1.54-2.74,1.93-5.82,2.26-8.85.21-1.85,1.36-1.82,1.93-1.92v-.82H22.85V187c.66.15,4.28-.19,4.28,4.66,0,2-.19,3.75-1.39,5.1-10.39-9.62-17.51-17.22-17.51-20.44a3.84,3.84,0,0,1,3.91-3.89,8.82,8.82,0,0,1,7.81,5.85h.85L19.95,172h-.79a1,1,0,0,1-.9.5c-1.44,0-2.35-.82-5-1.11h0a10.14,10.14,0,0,0-1.15-.07,6.33,6.33,0,0,0-6.64,6.45,9,9,0,0,0,2.21,5.48c-5.15,1.1-7.7,5-7.7,10.2,0,7.5,6.2,12.17,13.27,12.17a16.44,16.44,0,0,0,11.83-4.86c2.56,2.05,5.13,4.68,8.57,4.84h.58a19.74,19.74,0,0,0,2.87-.35c.86-.17,1.86-.42,1.86-.42Z"
     id="path26"
     style="fill:#000000" />
  <path
     class="cls-1"
     d="M1.18,99c1.22,5.16,5.27,8.17,9.79,8.17,3.89,0,8-2.25,8-6.83C19,92,.37,89.45.37,79.32c0-4.8,4.4-8.4,10.31-8.4,4.86,0,5.85,1.45,7.87,1.45a1.12,1.12,0,0,0,1-.58h.93l1,7.36h-1a10.23,10.23,0,0,0-9.33-6.84c-3.83,0-6.49,2.2-6.49,5.44,0,8.22,18.59,10.42,18.59,21.08,0,5.68-5,9.9-11.81,9.9-3.19,0-7.24-1.56-8.05-1.56a1.39,1.39,0,0,0-1.16.64h-1L.08,99Z"
     id="path28"
     style="fill:#000000" />
  <path
     class="cls-1"
     d="M60.7,81.29c-1.91-5.38-6.89-8.92-13.21-8.92-9.67,0-15.69,7-15.69,16.74,0,10.48,7.53,18.19,16.34,18.19,4.57,0,10.19-1.56,14.13-8.57h1.1a39.72,39.72,0,0,1-3.71,8.45c-3.71-.52-6.26,1.56-13.09,1.56-11.76,0-20.21-7.76-20.21-18.48C26.36,79,35,70.92,47.15,70.92c7.3,0,10.43,2.32,12.22,2.32.64,0,.92-.17,1-.35h.87l.52,8.4Z"
     id="path30"
     style="fill:#000000" />
  <path
     class="cls-1"
     d="M74.37,90.61v11c0,3.76.76,5.1,4.64,5.1h.17v1.1H64.64v-1.1H65c3.42,0,4.57-.93,4.57-4.23V77c0-3-1-3.89-4.17-4.12v-1.1H79.18v1.1c-4.11,0-4.81,1.1-4.81,5.57V88.52H97.08V77.11c0-3.07-1-4.23-4.57-4.23H91.4v-1.1h14.89v1.1c-3.48.12-4.41,1.16-4.41,4.75v24c0,4.11,1.16,5,4.64,5h.58v1.1H90.71v-1.1h1.8c3.76,0,4.57-1.34,4.57-4.35V90.61Z"
     id="path32"
     style="fill:#000000" />
  <path
     class="cls-1"
     d="M129.43,108.75c-11.35,0-20.91-7.3-20.91-18.13,0-11.53,8.86-19.7,21.2-19.7,11,0,20.34,7.47,20.34,17.9,0,11.7-9.38,19.93-20.62,19.93m-1.22-36.38C118,72.37,114,81.87,114,88.82c0,10.83,7.36,18.48,16.68,18.48s14-8.34,14-16.57c0-10.77-6.84-18.36-16.39-18.36"
     id="path34"
     style="fill:#000000" />
  <path
     class="cls-1"
     d="M174.62,108.75c-11.35,0-20.91-7.3-20.91-18.13,0-11.53,8.86-19.7,21.2-19.7,11,0,20.34,7.47,20.34,17.9,0,11.7-9.38,19.93-20.62,19.93M173.4,72.37c-10.19,0-14.25,9.5-14.25,16.45,0,10.83,7.36,18.48,16.69,18.48s14-8.34,14-16.57C189.8,80,183,72.37,173.4,72.37"
     id="path36"
     style="fill:#000000" />
  <path
     class="cls-1"
     d="M222.08,107.82H196.19v-1.1h1.91c2.66,0,3.64-.87,3.64-3.82V77.23c0-3.07-.92-4.34-4.57-4.34h-.81v-1.1h17.09v1.1h-2.14c-3.77,0-4.75.4-4.75,4v26.7c0,1.56.64,2.14,2.32,2.14h8.51c3.42,0,4.46-1.33,8.11-6.37h1Z"
     id="path38"
     style="fill:#000000" />
  <path
     class="cls-1"
     d="M246.12,79.36c1.68,0,5.27,2.31,5.27,8.51,0,11-10.94,15.81-13.67,15.81s-5.15-4.34-5.15-9.15c0-9.38,10.08-15.17,13.55-15.17m-3,2.14c-3.65,0-6.89,7-6.89,12.8,0,4.87,2.08,7.24,4.05,7.24,4.64,0,7.36-7.53,7.36-12.86,0-4.05-2-7.18-4.51-7.18"
     id="path40"
     style="fill:#000000" />
  <path
     class="cls-1"
     d="M254.39,82.55l.17-1a42.27,42.27,0,0,0,4.23-.65c.87-4.13,2.61-8.46,5.85-11.29a10.77,10.77,0,0,1,6.84-2.72c2.26,0,4.11,1.11,4.11,2.42A1.53,1.53,0,0,1,274,70.81c-1.91,0-3.47-2.07-5.15-2.07-2.26,0-4.11,2.22-4.92,5.54l-1.57,6.6h5l-.58,1.67H262l-3,14.72c-2.26,11.28-8.86,15.31-14.31,15.31-2.44,0-4.46-1.05-4.46-2.32a1.82,1.82,0,0,1,1.92-1.51c2.14,0,3.3,2.21,5.5,2.21a5.32,5.32,0,0,0,3.54-1.46c2.89-2.52,4-11.14,4.23-12.35l3-14.61Z"
     id="path42"
     style="fill:#000000" />
  <path
     class="cls-1"
     d="M10.79,140.87v12.2c0,4.17.83,5.65,5.13,5.65h.19v1.22H0v-1.22H.38c3.79,0,5.07-1,5.07-4.69V125.79c0-3.34-1.09-4.3-4.62-4.56V120H16.11v1.22c-4.55,0-5.32,1.22-5.32,6.16v11.18H36V125.92c0-3.4-1.09-4.69-5.07-4.69H29.67V120h16.5v1.22c-3.86.13-4.88,1.29-4.88,5.27v26.65c0,4.56,1.29,5.58,5.13,5.58h.65v1.22H28.9v-1.22h2c4.17,0,5.07-1.48,5.07-4.81v-13Z"
     id="path44"
     style="fill:#000000" />
  <path
     class="cls-1"
     d="M81.77,125.85c2.06-3.53.84-4.63-3.27-4.63V120H93v1.22c-4.36.32-6.23,2.06-8,5.07l-10.66,18V154c0,3.4,1.22,4.75,5.14,4.75h.83v1.22H62.64v-1.22h1.22c4,0,5.14-1.48,5.14-4.62V145L57.57,127.2c-3.15-4.94-4.63-5.84-8.8-6V120H65.84v1.22c-5,0-5.32,1.22-3.4,4.17l10.27,15.86Z"
     id="path46"
     style="fill:#000000" />
  <path
     class="cls-1"
     d="M127.23,156.93c-6.35,3.27-14.51,4-17.21,4C96,161,89.41,150.12,89.41,140.75c0-9.63,6.74-21.7,22.41-21.7,6.87,0,11.43,2.18,12.77,2.18a2.25,2.25,0,0,0,1.48-.45h.9v10.4h-1.29c-1.73-8-7.19-10.53-13.16-10.53-11.3,0-17.08,9.37-17.08,19.71,0,13.16,9.25,19,16.63,19a21.7,21.7,0,0,0,9.83-2.44v-8.09c0-3.66-1.29-4.88-5.14-4.88h-2.37V142.8h17.34V144c-3.21.19-4.5,1.28-4.5,4Z"
     id="path48"
     style="fill:#000000" />
  <path
     class="cls-1"
     d="M149,159.95h-15.6v-1.22c4-.19,4.81-1.22,4.81-5.52V125.85c0-3.47-1.22-4.43-4.81-4.63V120H149v1.22c-4,0-5.46.91-5.46,5.2v27.22c0,3.79,1,5.07,5.46,5.07Z"
     id="path50"
     style="fill:#000000" />
  <path
     class="cls-1"
     d="M181.39,145.5h-1.22c-.51-4.56-1.73-5.07-4.36-5.07H165V154.1c0,3,1.09,3.53,3.47,3.53h9.88c4.5,0,5.84-1.74,7.45-7.26h1.16l-1,9.57h-34.1v-1.22h1.8c5.14,0,6-1.41,6-5.27v-27.1c0-3.6-.84-5.14-5.14-5.14h-1.42V120h30.82l.52,8.93h-1.16c-.84-5.46-2.44-6.61-4.76-6.61H165v15.79h11.49c2.31,0,3.4-1.09,3.72-4.81h1.22Z"
     id="path52"
     style="fill:#000000" />
  <path
     class="cls-1"
     d="M231.48,160.39l-33.26-34.8v27.55c0,4.62,1,5.58,6.48,5.58v1.22h-14.9v-1.22h.25c4,0,5.27-1.35,5.27-4.3V122.83a9.4,9.4,0,0,0-5.39-1.61V120H200l30.24,31.52V126c0-3.92-1.16-4.62-6.29-4.76V120h15v1.22c-4.82,0-5.84.84-5.84,3.34v35.83Z"
     id="path54"
     style="fill:#000000" />
  <path
     class="cls-1"
     d="M270.2,145.5H269c-.51-4.56-1.73-5.07-4.36-5.07H253.77V154.1c0,3,1.09,3.53,3.47,3.53h9.88c4.5,0,5.85-1.74,7.45-7.26h1.15l-1,9.57H240.61v-1.22h1.8c5.14,0,6-1.41,6-5.27v-27.1c0-3.6-.83-5.14-5.14-5.14h-1.42V120h30.83l.51,8.93h-1.15c-.83-5.46-2.44-6.61-4.76-6.61H253.77v15.79h11.49c2.31,0,3.4-1.09,3.72-4.81h1.22Z"
     id="path56"
     style="fill:#000000" />
  <path
     class="cls-1"
     d="M52.5,200c0,2.84.94,3.84,4.15,3.84h2v1H42v-1H44c3.21,0,4.16-1,4.16-3.84V174H39c-2.1,0-3,1.21-3.84,5.83h-.94l.84-8.51h1a.8.8,0,0,0,.58.63,3.52,3.52,0,0,0,1.05.15H63c.73,0,1.52-.15,1.63-.78h1l.84,8.51h-1c-.79-4.62-1.73-5.83-3.84-5.83H52.5Z"
     id="path58"
     style="fill:#000000" />
  <path
     class="cls-1"
     d="M77.58,199.91c0,3.15,1.26,3.94,4.2,3.94H83v1H68.12v-1H69c3.1,0,4.21-.84,4.21-4.36V177.36c0-3.26-.9-4.2-3.95-4.2H68.12v-1c1.27,0,4.47-.21,6.63-.31s3.21-.16,6.62-.16c9.73,0,14.09,4,14.09,9.35,0,3.94-2.68,7.26-7,8.52a63.83,63.83,0,0,1,6,5.46l4.15,4.15c3.1,3.1,6.31,5.05,10.35,5.31v.95c-9.2.42-11.56-1.58-16.24-6.26l-3.47-3.47A38.65,38.65,0,0,0,83.84,191c-1.32.05-2.15.1-3.57.1-1.16,0-1.84,0-2.68-.1Zm0-9.88a22.52,22.52,0,0,0,3.26.11c5.84,0,9.67-2.47,9.67-8.78,0-4.88-2.21-8.67-10.3-8.67a20.39,20.39,0,0,0-2.63.11Z"
     id="path60"
     style="fill:#000000" />
  <path
     class="cls-1"
     d="M121.23,205.69c-10.3,0-19-6.62-19-16.46,0-10.45,8-17.86,19.24-17.86,9.94,0,18.45,6.78,18.45,16.24,0,10.62-8.51,18.08-18.71,18.08m-1.1-33c-9.25,0-12.93,8.62-12.93,14.93,0,9.83,6.68,16.76,15.14,16.76s12.67-7.57,12.67-15c0-9.78-6.2-16.66-14.88-16.66"
     id="path62"
     style="fill:#000000" />
  <path
     class="cls-1"
     d="M149,199.8c0,2.95.9,4,4.2,4h1.73v1H140.38v-1h.74c2.73,0,3.52-.58,3.52-3V175.94c0-1.94-.63-2.78-2.47-2.78h-2.63v-1c1.48-.05,4-.21,6.62-.31s5.1-.16,6.52-.16c11,0,13.5,5.26,13.5,9.3,0,6.15-4.94,10-12.71,10a21.57,21.57,0,0,1-4.47-.42Zm0-10.19a13.77,13.77,0,0,0,2.84.42c5.73,0,9.41-3.89,9.41-9.2,0-4.1-1.63-8.15-8.62-8.15a21.09,21.09,0,0,0-3.62.21Z"
     id="path64"
     style="fill:#000000" />
  <path
     class="cls-1"
     d="M181.2,204.85H168.43v-1c3.25-.15,3.94-1,3.94-4.52V176.94c0-2.84-1-3.63-3.94-3.78v-1H181.2v1c-3.31,0-4.47.73-4.47,4.26V199.7c0,3.1.84,4.15,4.47,4.15Z"
     id="path66"
     style="fill:#000000" />
  <path
     class="cls-1"
     d="M213.73,180.77a12.26,12.26,0,0,0-12-8.09c-8.78,0-14.24,6.36-14.24,15.19,0,9.51,6.83,16.5,14.82,16.5,4.15,0,9.25-1.42,12.83-7.78h1a36,36,0,0,1-3.36,7.68c-3.37-.48-5.68,1.42-11.88,1.42-10.67,0-18.34-7-18.34-16.77,0-10.19,7.89-17.55,18.87-17.55,6.62,0,9.46,2.1,11.09,2.1.58,0,.84-.16.94-.31h.79l.47,7.62Z"
     id="path68"
     style="fill:#000000" />
  <path
     class="cls-1"
     d="M226,190.34,223,198.59a14.88,14.88,0,0,0-1.05,3.32c0,1.42,1.36,1.94,4.26,1.94H227v1H214.87v-1c3.42-.05,4-.63,5.68-5.2l9.56-26.12-.47-1.16h4.57l11,29.17c1,2.78,2.15,3.31,4.78,3.31v1H235.53v-1h1.37c3,0,4.1-.31,4.1-1.79a5.86,5.86,0,0,0-.57-2.15l-3.52-9.57Zm5.36-14.55L226.91,188H236Z"
     id="path70"
     style="fill:#000000" />
  <path
     class="cls-1"
     d="M274.31,204.85H250.81v-1h1.73c2.42,0,3.32-.78,3.32-3.47V177.09c0-2.78-.84-3.94-4.15-3.94H251v-1h15.51v1h-1.94c-3.41,0-4.31.37-4.31,3.62V201c0,1.42.58,1.94,2.11,1.94H270c3.11,0,4-1.21,7.36-5.78h.94Z"
     id="path72"
     style="fill:#000000" />
  <path
     class="cls-1"
     d="M377.06,53.76S381.82,43.62,391,38.32c2.89-1.66,5.7-3.32,9.18-3.38,8.53-.14,13.17,2.9,15.91,7.46.3.51.59,1,.85,1.58a12,12,0,0,1,.4,3c-.13.41-.31.78-.51.86-.49.19-1.12-.22-1.52.37a1.29,1.29,0,0,0,.07,1.51,2.85,2.85,0,0,1-.07,2.5,8.43,8.43,0,0,1-.65,1.24c-1.17,2-2.54,3.88-3.42,5.83a47.77,47.77,0,0,0-2,5.54,53.79,53.79,0,0,0-.95,7.28c0,.65,0,2,.15,3.11.06.73.21,1.5.22,1.66,0,.63,0,1-.76,1.3a18.27,18.27,0,0,1-2.57,0c-1.55,0-3.65,0-5.41-.11-2.17-.14-4-.39-4.27-.43-.68-.1-.68-.3-.93-.74s.16-1.48-.23-1.48-1.19.87-1.68,1.36-1.49.72-1.21,1c.88.87,2.45,3.05,2.6,2.67s-.1-1.42,1-1.86c.41-.16,4.12.21,7.48.31a29.05,29.05,0,0,0,4.16.23c.6,0,1.2.11,1.72.05a17.73,17.73,0,0,1,7,.51c.77.22,1.38.44,2,.61h0a6.78,6.78,0,0,0,2.26.26c.93,0,1.84,0,2.67-.06,1.54-.18,3.49-.74,4.87-1,3.33-.72,4.71-1.15,5.21-1.22s1.46-.23,2.69-.33c1.43-.12,3.06-.16,4.1-.16s4.53.26,7.41.46c.71.05,1.43.21,2,.23a10.56,10.56,0,0,0,2.22-.2,7.21,7.21,0,0,0,3.55-1.79c.46-.39.86-.7,1-.82.45-.45,2.6-1.38,2.7-1.8,0-.07,0-.17-.23-.2a13.41,13.41,0,0,0-1.89,0,24.57,24.57,0,0,0-2.67.32c-.81.1-5,1.06-7.2,1.59-.4.1-.75,0-1.11.09-1.23.23-2.33.4-3.33.59a17.21,17.21,0,0,1-2.3.28c-1.27.09-2.92,0-4,0-1.75,0-3.56-.19-4.36-.24a28.79,28.79,0,0,1-4.13-.74.56.56,0,0,0-.15,0h0a5.9,5.9,0,0,0-2.81.62,4.08,4.08,0,0,0-1.12.65h0a2.7,2.7,0,0,0-.56.64v0l-.08.13h0a7.46,7.46,0,0,1-.56.9c-.48.51-1.22.11-1.69-.08a.5.5,0,0,1-.21-.14,2.54,2.54,0,0,1-.38-.72,2.46,2.46,0,0,1,0-1.26,5.25,5.25,0,0,1,1-1.62,2.31,2.31,0,0,1,.21-.24,9.86,9.86,0,0,1,4.23-1.84,14.52,14.52,0,0,0,1.71-.42,1,1,0,0,0,.2-.11c.27-.12.39-.28.38-.73-.07-2.1-.3-4.15-.33-6.06-.06-2.92-.17-5.61-.18-8,0-2.21.11-4.21,0-6a51.7,51.7,0,0,1,.42-7.83c2.38-6.45,9-7.86,14-7.61a21.09,21.09,0,0,1,6.43,1.44c12.07,4.23,13.71,20.1,14.3,17.89,3.78-14.17-3.83-22.34-13.52-24.44a24,24,0,0,0-23.16,7.68c-.59,1-3.24-.15-1.84-1.9,5.54-7,12.28-7.87,17.42-8.9,3.73-.74,12.71,1.09,17.56,3.68,4.11,2.19,6.09,5.16,5.89,4.4-.66-2.42-3.16-12.93-17.64-14-7.36-.56-13.82,2.32-18.63,5.95a40.22,40.22,0,0,0-6.07,5.89c-2,2.32-2.94,4.31-3.46,4.33-1.22.05-3.59-3.69-8.89-6.25A26.88,26.88,0,0,0,400.69,29a23.38,23.38,0,0,0-11.25,1.37,18.88,18.88,0,0,0-5.71,3.29c-4.34,3.9-6.32,10-6.77,14.33A22.75,22.75,0,0,0,377.06,53.76Zm40.87,7.51c0,.95-.13,2-.15,3.27-.08,4.75-.23,10.86-.62,12.93a.8.8,0,0,1-.34.59.89.89,0,0,1-.45.23,18.65,18.65,0,0,1-2.12,0,10,10,0,0,0-1.23-.13,6.52,6.52,0,0,1-1.61-.13,1.65,1.65,0,0,1-1-1,10,10,0,0,1-.45-2.41c-.09-.9-.11-1.91-.17-2.74a6.47,6.47,0,0,1,.07-1.8c.16-1.15,1-6.68,1.55-7.79a24.79,24.79,0,0,1,1.1-2.34c.42-.77.82-1.39,1.43-2.35s1.21-2,1.6-2.79a4.78,4.78,0,0,1,.25-.5c.2-.29.31-.17.35-.17.34,0,.48.21.7.77a31.54,31.54,0,0,1,1.07,3.61C417.94,58.68,418,59.75,417.93,61.27ZM418.71,50c.36.21.77,1.33.92,1.7s6.26,17.65,6.4,18.11a1.17,1.17,0,0,1-.74,1.41,1.23,1.23,0,0,1-1.67-.6c-.16-.31-2.3-6.69-4.19-12.21-1.27-3.71-2.48-6.87-2.58-7.18a1.14,1.14,0,0,1,.66-1.26A1.29,1.29,0,0,1,418.71,50Z"
     id="path74"
     style="fill:#000000" />
  <path
     class="cls-1"
     d="M428.54,166.16c-.23-.13-1,.13-2,.41-.61.16-1.36.3-2,.5a12.82,12.82,0,0,1-3.91.84c-1.83-.09-1.51-1.12-2.93-1.66a6.42,6.42,0,0,0-3.66.17l-.32.53a51.71,51.71,0,0,1,1.44,7.82,53.91,53.91,0,0,1,.21,5.57c0,.33-.11,1-.16,2.07s-.06,2.25-.15,3-.25,1.69-.38,2.52-.31,1.52-.48,2.32a25.13,25.13,0,0,1-1.2,4.28c-1.68,4.08-4.06,7.52-5.78,11.75-.65,1.62-1.46,3.29-2.29,4.86a12.78,12.78,0,0,1-2,2.89c-.78.81-1.76,1.46-2.43,2.09a8,8,0,0,0-1.26,1.71A26.83,26.83,0,0,1,397,221.2a2.31,2.31,0,0,1-.68.57l10.54.19a1.22,1.22,0,0,1-.49-.42,16.09,16.09,0,0,1-.89-3.93,3.82,3.82,0,0,1,.44-1.6,6.4,6.4,0,0,1,1.56-1.67,20.06,20.06,0,0,1,1.86-1.06c.58-.34.87-.22,1.27-.65s.24-.89.4-1.39c.69-2.31,1.84-4.83,2.79-7.13a48.45,48.45,0,0,1,4.66-8.92c1-1.43,2.42-2.59,2.71-3.7a12.45,12.45,0,0,0,0-3.23c0-1,.07-1.94.12-2.8a26.37,26.37,0,0,1,1.62-7.25c.33-.93.6-1.9,1-2.83s1.55-3.22,2.61-5.13C427.74,168.15,428.87,166.35,428.54,166.16Z"
     id="path76"
     style="fill:#000000" />
  <path
     class="cls-1"
     d="M424.84,209.11c.05-1.24.07-2.56.13-3.79,0-1,.22-2,.26-3.07.15-3,.33-6.06.4-9.08l-1.38.81c-.51.6-2.76,2.87-3.27,3.71-1,1.6-1.87,3.3-2.88,4.95a21.37,21.37,0,0,0-1.52,3.4c-.55,1.24-.78,2.19-1.28,3.48a18,18,0,0,0-1,3.36,35.1,35.1,0,0,0-.1,5.32c.05.45.1.54.56.77,2.35.09,8.31.07,8.31.07,1.45,0,1.42-.43,1.39-1.75,0-1.55.1-2.94.16-4.46C424.67,211.58,424.79,210.34,424.84,209.11Z"
     id="path78"
     style="fill:#000000" />
  <path
     class="cls-1"
     d="M437.21,199.06c.29-.57.5-1.13.76-1.55a40.09,40.09,0,0,1,2.25-3.33c.94-1.25,2-2.52,2.74-3.43.37-.47.82-.87.65-1.34s-.77-.87-1.38-1.44c-1-1-2.25-2.12-2.76-2.68a30.65,30.65,0,0,1-2.85-4.06,40.11,40.11,0,0,1-4.77-8.41c-.06-.2-.11-.24-.18-.23s-.1,0-.18.44a8.41,8.41,0,0,0,.38,4.39c.11.31.1.7.21,1.08.26.79.67,1.69,1.05,2.64,1,2.54,2.35,5.37,3,7.12a4.89,4.89,0,0,1-.3,4.37c-1.18,2.22-2.34,4.9-3.65,7.26-1,1.77-2,3.23-2.13,4.73s.52,3,1.57,4.88c.19.34.28.77.51,1.14a14.37,14.37,0,0,1,1,2.07,7.06,7.06,0,0,0,.69,1.21c1,1.49,2,2.8,2.66,3.85.27.43.62.85.77,1.11.05.1,0,.1,0,.1.81,0,1.34-1.09,2.17-2.24.45-.62,1.52-1.86,2.21-2.76.23-.29.37-.58.26-.83-.39-.93-3.38-.73-4.23-1.23-.33-.2-.64-.31-.9-.5-1.23-.91-1.69-2-1.44-2.89.18-.64,1.41-.94,1.56-1.59.25-1.15-1.36-1.55-1.24-3.72A12.35,12.35,0,0,1,437.21,199.06Z"
     id="path80"
     style="fill:#000000" />
  <path
     class="cls-1"
     d="M382.17,113.65a14.26,14.26,0,0,0,1.42.64c.73.28,1.59.5,2.29.76a9.11,9.11,0,0,0,1.4.33,22.21,22.21,0,0,0,3,.32c1.38.09,4.72.54,4.86-.05s-1-1.5-1.31-2.16a1.89,1.89,0,0,0-.76-.65,9.43,9.43,0,0,0-1.64-.14c-.45,0-.91-.1-1.28-.15-.71-.08-1.4-.07-2.08-.14-.41,0-.76-.16-1.16-.24a24.94,24.94,0,0,1-2.64-.62c-.25-.08-.57-.12-.82-.22l-.93-.34c-.64-.24-1.36-.58-1.61-.15C380.5,111.52,381.39,113.28,382.17,113.65Z"
     id="path82"
     style="fill:#000000" />
  <path
     class="cls-1"
     d="M367.51,89.26A2.19,2.19,0,0,1,367,89c-.61-.43-1-1.34-1.57-1.93a6.92,6.92,0,0,0-2.18-1.6c-.86-.37-1.74-.83-2.66-1.14-.41-.13-.81-.24-1.22-.33s-.87-.08-1.34-.14-.83-.16-1.27-.18a9.18,9.18,0,0,0-2.05.24c-.17,0-.33,0-.51.05a14,14,0,0,0-2.53.66,9.55,9.55,0,0,1-1.62.58,6.29,6.29,0,0,1-1.53-.21c-.31-.07-.65-.19-1-.24a12.41,12.41,0,0,0-2,0,16.41,16.41,0,0,0-1.95.13,13.3,13.3,0,0,0-4.44,1.73c-.26.14-2.18,1.81-2.46,1.88-.83.22-1.81.06-3,.34a17.3,17.3,0,0,1-1.68.49,8.59,8.59,0,0,0-2.73,1.08,12.42,12.42,0,0,0-1.88,1.43c-.25.21-.55.41-.81.63-.62.54-2.28,2.63-2.56,2.78a18.4,18.4,0,0,1-3.36.78c-.61.12-1.22.35-1.79.52a5.79,5.79,0,0,0-1,.27c-.28.18-.93.42-.88.64s.27.33.45.47.67.45.94.67c.49.41.85.91,1.34,1a11.58,11.58,0,0,0,2.13-.29,4.29,4.29,0,0,0,1.84-.58c.3-.2.42-.73.75-1a15.84,15.84,0,0,0,1.24-1.36,6.28,6.28,0,0,1,1.7-1.19,14.4,14.4,0,0,1,2-.83,5.69,5.69,0,0,0,1.08-.29,14.65,14.65,0,0,0,1.37-1.44,13.49,13.49,0,0,1,1.87-1.44,12.09,12.09,0,0,1,6.43-2.28,17.94,17.94,0,0,1,2.66.18,2.53,2.53,0,0,0,1.06,0c.49-.18,1.17-.82,1.88-1.17a11.76,11.76,0,0,1,4.66-1.08A14.36,14.36,0,0,1,353,87a12.37,12.37,0,0,1,1.64.25,24.54,24.54,0,0,1,3.11,1.08,6.69,6.69,0,0,1,1.37.92,1.67,1.67,0,0,0,.83.45,8.51,8.51,0,0,0,1.13,0,8.07,8.07,0,0,1,4.26.7,8.69,8.69,0,0,1,3.38,3.34c.14.45,1.28.92,2.35,1.52a10.68,10.68,0,0,1,1.73,1.23,9.23,9.23,0,0,1,2.09,2.67A19.42,19.42,0,0,1,377,104c.52,1.43.13,4.5.13,6.49,0,2.74,3.36,3.88,2.87,3.42s-1.69-2.87-.55-3.91.26-5.07.26-5.07c-.44-1.83-1-3.8-1.39-5.13-.08-.23-.32-.81-.4-1.09a13.81,13.81,0,0,0-1.75-3.42,21.67,21.67,0,0,0-2.26-2.69,20.47,20.47,0,0,0-4.7-2.93C368.8,89.56,368.07,89.45,367.51,89.26Z"
     id="path84"
     style="fill:#000000" />
  <path
     class="cls-1"
     d="M394.35,117.1c-1.24,0-2.51,0-3.66-.11s-3-.46-4.51-.76c-1.2-.23-1.94-.64-2.42-.29-.65.48,1.72,2.88,2.62,3.32,2.13,1.05,4.49.72,6.63.91a18.31,18.31,0,0,0,4.24.09c1-.21.6-2.58-.89-3A7.28,7.28,0,0,0,394.35,117.1Z"
     id="path86"
     style="fill:#000000" />
  <path
     class="cls-1"
     d="M369.6,178.68c.33,1,.62,2.14,1,3.36s.75,2.63,1.2,3.94a45.29,45.29,0,0,1,1.73,5.49c.6,3,.87,2.75,1.37,5.7,0-.2.68,2.46.87,3.14.21,1.1.65,2.94.82,4.57a12.17,12.17,0,0,1,0,2.6,11.87,11.87,0,0,1-.48,1.81,18.16,18.16,0,0,1-1.71,4.43c-.47.84-1.09,1.56-1.57,2.43-.33.61-.73,1.06-1.06,1.69-.25.47-.75,1.42-1.23,2.24a4.62,4.62,0,0,1-.82,1.19l10.68.2-.21-.45a16.34,16.34,0,0,1-.7-2c-.21-1-.56-1.69-.7-2.39a5.12,5.12,0,0,1,.27-3.18,12.29,12.29,0,0,1,.72-1.1,12.94,12.94,0,0,1,.94-1.42,5.51,5.51,0,0,0,1.05-1.47,8,8,0,0,0,0-2.75c0-.23-.09-.48-.12-.72-.18-1.51-.47-3.12-.84-5.13-.23-1.22-.35-3.78-.46-4.91-.24-2.48-.4-5.05-.6-7.73,0-.29,0-1.31,0-1.61a50.45,50.45,0,0,1,.5-11.39,31.45,31.45,0,0,1,1-3.78,22.14,22.14,0,0,1,.61-2.22c.11-.3.3-.56.43-.89.21-.53.25-1.12.46-1.66a63.26,63.26,0,0,1,2.72-5.86c.34-.67.84-3.12,1.95-4,.75-.59,1.9-.27,2.55,1.08.17.36-.39,1.54-1,2.7-.33.6-.7,1.16-.92,1.69-.59,1.36-1.49,2.26-.75,2.64,1.5.1,2.86.06,4.22,0,1.51,0,2.91,0,4.31,0,2.75,0,5.35,0,8.14-.26.51,0,1.06,0,1.59-.1,1.6-.23,2.93-.37,4.05-.53,2.31-.33,3.75-.58,5-.72a21.39,21.39,0,0,1,3.28-.21,2.87,2.87,0,0,1,1.51.69c.73.59,1.12.93,1.57.82.81-.18,1.6-.34,2.36-.5,1-.22,2-.4,2.85-.65a9,9,0,0,0,2-.63c.27-.19-.11-.81-.63-1.25a2.74,2.74,0,0,0-1.1-.58c-1.81-.33-2.63.1-3.64-1.59a1,1,0,0,1,.77-1.58,6.41,6.41,0,0,1,3.92.38c2.08.68,3.28,2.28,4.5,4.11a11.48,11.48,0,0,1,1.27,3.2c.34,1.17.72,2.33,1,3.49a13,13,0,0,0,.72,2.44c.67,1.43,1,2.82,1.7,4a27.34,27.34,0,0,0,7,8.41,36.19,36.19,0,0,1,4.94,4.72,18.18,18.18,0,0,1,2.09,2.94,8,8,0,0,1,1,2.53,41.75,41.75,0,0,1,.7,4.67c.14,1.26.42,2.53.53,3.78a20,20,0,0,1,.37,2.34c-.07,3,.66,5.27.58,7.63a12.29,12.29,0,0,1-1.64,3.8,4.33,4.33,0,0,1-.58.87,14.71,14.71,0,0,1-2.09,1.49,6.3,6.3,0,0,0-1.44,1.69c-.31.45-.65.83-1,1.32a2.12,2.12,0,0,1-.89,1.08l11.35.21c-1.14-.23-1-1-1-1.94,0-.62,0-1.25-.07-1.83,0-.24,0-.77,0-1a8.28,8.28,0,0,1,.29-2,13.77,13.77,0,0,1,.9-2.43c.79-1.37,1.76-2.53,1.9-3.44.17-1.19-.6-3.27-1-5-.2-.83-.52-4.17-.58-5-.09-1.38-.4-3-.38-4.38a29.5,29.5,0,0,1,.58-3.9c0-.19.19-.63.24-.87a4.93,4.93,0,0,0,0-1.64,6,6,0,0,0-1.11-2.07c-.44-.69-.82-1.48-1.25-2.12a50.39,50.39,0,0,1-2.36-5c-.47-1-.92-2-1.35-3.13a13.27,13.27,0,0,1-1-4.67,16.07,16.07,0,0,1,1-5.4c.71-1.89,2.52-4.71,3.75-7.61a59.2,59.2,0,0,0,2.17-6.36,23.74,23.74,0,0,0,.63-7.84,28.69,28.69,0,0,0-.57-3.72,6.79,6.79,0,0,0-.34-1.69c-.15-.34-.1-.64-.23-1.06s-.36-.68-.49-1c-.45-1.08-1-2.14-.58-2.49.94-.87,6-1.86,8.17,1.3,2.34,3.36,1.3,7.75.4,10.35a59.9,59.9,0,0,0-3.08,10.56,6.87,6.87,0,0,0,.62,4.62,10.3,10.3,0,0,1,1.55,4.32c.08,2.78-2.79,3.86-2.74,6.8,0,1.66,1.59,4.43,3.9,4.33.18-.47-.2-.84-.15-1.25a10,10,0,0,1,.54-3.42,5.58,5.58,0,0,1,3.22-3.32c1.84-1.27,5-2.66,5.15-5.06a8.8,8.8,0,0,0-.25-2.79,18.72,18.72,0,0,0-1.22-3.4,6.5,6.5,0,0,1-.89-2.39,5.93,5.93,0,0,1,.24-1.59,10.64,10.64,0,0,1,.76-2.46,31.76,31.76,0,0,0,2.93-5.81,14.65,14.65,0,0,0,1-4.12c.09-.91,0-1.89,0-2.71a13.51,13.51,0,0,0-1.66-5.86,6,6,0,0,0-1.52-1.88,26.87,26.87,0,0,0-3-2.23,6.27,6.27,0,0,0-1.47-.54c-2.31-.82-4.55-.76-7.62.29a18.14,18.14,0,0,0-3.07,1.3c-1.57.89-2.92,1.87-4,1.63s-1.9-1.83-2.64-2.46a10.26,10.26,0,0,0-3.18-2,27.68,27.68,0,0,0-5.59-1.52,25.4,25.4,0,0,0-5.92,0l-5.34.5c-1.75.17-3.51.59-5.24.79l-4.06.48c-2.46.27-5.41.65-8,1-.69.1-1.2.08-1.85.16a19.9,19.9,0,0,1-3.9.09,19.43,19.43,0,0,0-2.22-.07v0c-.92-.1-3.53-.39-3.86-.48s-1.93-.19-2.41-.39l-4.06-.82a13.6,13.6,0,0,0,3.51-2.52c2.53-2.64,4-7.15,1.82-10.55a7,7,0,0,0-1.31-1.34,7.57,7.57,0,0,0-3.17-1.82,3.26,3.26,0,0,0-1.27,0,1.12,1.12,0,0,0-.89.87,1.23,1.23,0,0,0,.2.94c.55.81,1.74,1.24,2.72,2a3.65,3.65,0,0,1,1.39,1.94,3.44,3.44,0,0,1,.05.34,5.84,5.84,0,0,1-.31,2.93,7.48,7.48,0,0,1-2.87,3.76,12.07,12.07,0,0,1-3.58,1.85c-.7.23-1.33.43-2,.62-7.23.1-11.82-7.75-15.55-12.9-.62-.85-1.86-2.37-3.08-3.94a38.52,38.52,0,0,0-2.41-3.07,23.77,23.77,0,0,0-3.47-3.11,29.15,29.15,0,0,0-4-2.5c-1.84-.86-3.84-1.7-5.74-2.38a32.57,32.57,0,0,0-4.57-1.19c-.64-.13-1.49-.42-2.26-.58a12.76,12.76,0,0,1-1.88-.41,2,2,0,0,1-.83-.53c-.42-.54-.14-1.18.83-1.31a25.18,25.18,0,0,1,5.76.16c.64.13,1.41.15,2,.26a22.66,22.66,0,0,1,2.73.72,40.45,40.45,0,0,1,7,3.1c.48.26,1,.75,1.43,1a21.54,21.54,0,0,1,3.49,2.78,41.5,41.5,0,0,1,3,3.24c.17.2.78,1,1.06.93s-.24-1.06-.29-1.37c-.65-1.75-2.21-5-3.9-6.57s-3.25-1.31-3.74-1.62a1.76,1.76,0,0,1-.51-1.21,4.07,4.07,0,0,0-1.87-2.43c-1.48-1-3.25-.16-4.82-.46a16.24,16.24,0,0,1-2.58-1.4,11.86,11.86,0,0,0-2.11-.83,16.19,16.19,0,0,0-4.77-.36c-2.14.11-3.44,1.82-4.75,2.51-.48.25-1.05-.21-1.75-.4a8.48,8.48,0,0,0-2.62-.14,10.83,10.83,0,0,0-5.18,2.12c-1.7,1.21-1.79,2.25-2.82,2.74-.18.09-.93.12-1.13.18a8.4,8.4,0,0,0-3.45,1.73,12.5,12.5,0,0,0-1.85,2.42,1,1,0,0,1-.61.44c-.33,0-1.84,0-3.11.17a9,9,0,0,0-1.72.35c-.87.25-1.53.57-1.54.83,0,.63,3.38,1.42,2.41,1.16a9.17,9.17,0,0,1,1.86.56,1.76,1.76,0,0,1,1.24,1.69,7,7,0,0,1,.2,2.09,60.06,60.06,0,0,1-1.33,6.76,16.55,16.55,0,0,0-.22,2.42c0,.61-.1,1.63-.07,2.25.15,3.06,1.66,5.11,2.34,8.9,0,.15.17,2.32.32,3.18a28.87,28.87,0,0,1,.36,4.48c0,.74-.32,1.55-.32,2.31,0,2.78,1.14,4.64,3.18,5.06a2.8,2.8,0,0,0,2.32-.09c1.42-.85,1.41-2.14,1.47-3.41a4.7,4.7,0,0,1,.11-1.41c.86-2.46,2.5-2.07,2.88-1.91,1,.39,1,1.32,1,1.84a17.37,17.37,0,0,1-.51,3.11c-.18,1.55.32,2.13,1.45,1.23.47-.38.34-1.21.75-1.91,0,0,.77-4.12,1.39-7.92l.11,0a6,6,0,0,1,1.71-.11c2.56,0,5.2-.06,7.8-.18l2-.09.69,1.66a45.93,45.93,0,0,1,2.2,5.34,61,61,0,0,1,2.39,9.18c.16.68.16,1.42.24,2.13.34,2.52.48,5.06,1,7.48a10.85,10.85,0,0,0,1.3,3.46c1,1.79,2.89,3.47,6.14,6.79,1.13,1.16,1.55,2.72,2.31,4.26.24.49.27,1.09.47,1.62C368.5,176,369.11,177.21,369.6,178.68Zm-45.4-57.95v-.13s0,.08,0,.13c.4-4.67,6.09-2.74,5.66.65A2.85,2.85,0,1,1,324.2,120.73Zm5,21.13c-2.47-.53-1.22-3.73.81-2.48C331.32,140.24,331.22,142.31,329.15,141.86ZM348,130.39c-2.46.11-5.28.2-7.66.07a23.42,23.42,0,0,0,.25-2.63c0-.24.66-.92,1-1.26a11.19,11.19,0,0,0,1.35-1.83,12.61,12.61,0,0,0,1.11-6.16,29,29,0,0,0-1-7.26,7.62,7.62,0,0,0-1-1.7c-1.54-1.54-.81-2.31.64-2.6a2.2,2.2,0,0,1,1.92,1.11,13.28,13.28,0,0,1,2.41,6c.29,2.5.13,2.33.33,4.77.14,1.74-.65,4.05-.1,5.11a22,22,0,0,1,1.91,3.82l1,2.54C349.45,130.35,348.72,130.36,348,130.39Z"
     id="path88"
     style="fill:#000000" />
  <path
     class="cls-1"
     d="M357,189.06c.37,2,.85,4.51,1.2,7a25.83,25.83,0,0,0,1,5.54,8.81,8.81,0,0,0,1.63,2.17c1.17,1.41,2.46,2.57,3.65,3.89a.93.93,0,0,0,.36.25c.11,0,.23-.08.38-.3a20.36,20.36,0,0,0,1.75-3.74c.14-.31.18-.47.31-.76.49-1.11,1-2.09.81-2.46s-1-.43-1.87-.44c-.58,0-1.27-.24-1.88-.29a3.84,3.84,0,0,1-1.76-.74,2.16,2.16,0,0,1-.64-3c.14-.31.86-1.2.72-2a30.69,30.69,0,0,0-1.15-3.47,15.79,15.79,0,0,1-.39-2.5,12.37,12.37,0,0,1-.34-2.5,4.5,4.5,0,0,1,.69-2.68c.8-1,2.08-1.2,3.35-1.65.57-.2,1.44-.48,1.64-.92l.09-.43a4.69,4.69,0,0,0-.45-1.39,5.2,5.2,0,0,0-.56-1.21c-.52-.05-.89.24-1.4.43-1,.35-2.08.79-3,1.11a32.11,32.11,0,0,0-3.27,1.35c-.9.43-1.57.86-2.18,1.2-.79.45-.5,1.53,0,3A40.28,40.28,0,0,1,357,189.06Z"
     id="path90"
     style="fill:#000000" />
  <path
     class="cls-1"
     d="M351.72,179.26c1-.46,2-.9,3.07-1.35,2.33-1,4.89-1.63,7.18-2.54a8.3,8.3,0,0,0,1.65-.73c.35-.25.65-.33.61-.76a4.55,4.55,0,0,0-.43-1,5.67,5.67,0,0,0-.4-1,7.27,7.27,0,0,0-1.48-1.43c-.68-.62-1.28-1.27-1.92-1.87-.82-.77-1.7-2.06-2.34-2.28-.29-.1-1.88.83-3.73,2.24-.64.49-1.39.87-2.13,1.38-.55.38-1.1.88-1.66,1.3-.93.68-1.88,1.28-2.81,2-.78.59-1.69,1.13-2.46,1.69a8,8,0,0,0-.87.73,5.45,5.45,0,0,0-1.3,1.63c-.5,1.26-.36,3.28.25,5.6.39,1.43.47,3.43.77,5.06a27.76,27.76,0,0,1,.54,4.23c0,1-.14,2.48-.21,3.79a11,11,0,0,1-.08,1.55,13.64,13.64,0,0,0-.4,5.85,19.16,19.16,0,0,0,3.87,7,9.94,9.94,0,0,0,1.48,2,30.93,30.93,0,0,0,2.5-3.43,17.49,17.49,0,0,0,1.08-1.73,4.78,4.78,0,0,0,.51-1.05c.06-.28-.31-.75-.91-1a18.17,18.17,0,0,1-2.46-.91c-1.55-.92-2.68-2.39-2-3.54.83-1.31,1.86-1.5,2.2-2.1.27-.45,0-1.18-.43-2.27a15.42,15.42,0,0,1-.62-5.91c.13-2.64-.85-7,.32-9.51C349.61,180,350.79,179.68,351.72,179.26Z"
     id="path92"
     style="fill:#000000" />
  <path
     class="cls-1"
     d="M322.88,138.13c0-.41.13-1.75.1-2.17a45.61,45.61,0,0,0-.62-6.6,33.51,33.51,0,0,0-1.16-3.46c-.19-.57-.2-1.53-.82-2.07a3.63,3.63,0,0,0-1.24-.58,2.58,2.58,0,0,1-1.59-1.73,2.26,2.26,0,0,1,.77-2.5c.49-.44,1.3-.59,1.54-1a9.82,9.82,0,0,0,.34-1.69c.78-3,2-7.71,1.15-8.67a2.69,2.69,0,0,0-1.25-.57c-.42-.12-.88-.23-1.34-.39a19.05,19.05,0,0,1-3.66-2c-.53-.38-3.06,1.05-2.55,1.4.23.15,1.43.33,2.61.82,1.46.6,3,1.6,3.22,2.55.31,1.13-.42,5.41-.77,6.54a19.79,19.79,0,0,0-.87,3.66,4.74,4.74,0,0,0,0,1.68c0,.2-.06.32,0,.54a28,28,0,0,0,1.88,3.56c.23.46.08,1.35.19,1.83a26.5,26.5,0,0,1,.77,6,24.3,24.3,0,0,1-.33,2.74,21.59,21.59,0,0,1-.24,2.22,4.44,4.44,0,0,0,.14,3.32c1,2.16,3.72,2.54,3.8,1.5.15-1.79-1.47-1.12-2-1.9s-.9-1.14-.27-2.3C321,138.17,322.19,138.18,322.88,138.13Z"
     id="path94"
     style="fill:#000000" />
  <path
     class="cls-1"
     d="M375.34,235.7a12.93,12.93,0,0,0,6.88,2.43,11,11,0,0,0,6.24-2.39c1.7-1.23,2.79-2.49,4.5-3.81a2.3,2.3,0,0,1,1.8-.68,29.66,29.66,0,0,1,3.15,0,2.08,2.08,0,0,0,.72-.08c.11-.09-.05-.43-.18-.6-1.66-2.12-3.43-2.08-5-2-5.44.14-7.2,4.52-11.06,5-2.07.28-5.76-.61-7.67-1.33a49.59,49.59,0,0,1-5-2.31c-.16-.12-.37.07-.14.36A47.82,47.82,0,0,0,375.34,235.7Z"
     id="path96"
     style="fill:#000000" />
  <path
     class="cls-1"
     d="M399.82,236.73c.85-.06,2.29-2.12,2.57-2.57.17-.28.08-.4-.21-.47a23,23,0,0,0-5.63.08c-1,.25-4.21,2.22-3.83,2.67S398.42,236.82,399.82,236.73Z"
     id="path98"
     style="fill:#000000" />
  <path
     class="cls-1"
     d="M400.65,243c4.78.52,8.51-3.73,11.5-7a13.57,13.57,0,0,1,5.85-4.32c1.17-.46,2.41-.18,3.68-.22,1,0,.79-.35-.49-1.26a7.35,7.35,0,0,0-4.74-1.31,13.25,13.25,0,0,0-4,.73,13.52,13.52,0,0,0-5.3,3.4c-1.6,1.55-2.77,3.65-4.4,5.15-1,.86-1.2,1.33-3.37,1.25a14.93,14.93,0,0,0-3.51.14c-.17.2.13.65.13.65A6.82,6.82,0,0,0,400.65,243Z"
     id="path100"
     style="fill:#000000" />
  <path
     class="cls-1"
     d="M420.9,237.06a2.77,2.77,0,0,0,1.61-.27c.45-.34,2.62-2,2.57-2.43,0-.21-1.27-.22-2.79-.25a15.41,15.41,0,0,0-3,0,5.54,5.54,0,0,0-3.34,2.32c-.11.2-.08.26.05.38S419.7,237,420.9,237.06Z"
     id="path102"
     style="fill:#000000" />
  <path
     class="cls-1"
     d="M445.47,234.52a11.49,11.49,0,0,0-2.21-.12,10.28,10.28,0,0,0-2.29.05c-1.11.28-2.84,2.41-2.94,2.67s-.21.41.24.52,3.42.2,5.15.22c1,0,2,.21,2.19-.24a4.78,4.78,0,0,0,.19-1.73C445.81,235.23,445.78,234.7,445.47,234.52Z"
     id="path104"
     style="fill:#000000" />
  <path
     class="cls-1"
     d="M462,232.33c1.47-.46,4.82-.51,4.38-1.1s-2-1.23-3.9-1.42a15.18,15.18,0,0,0-3.09-.05c-2.27.19-4.74.92-7.08.92s-4.5-.8-6.8-1.35a15.37,15.37,0,0,0-8.43-.07c-3.88,1.22-6.29,3.44-9.13,6.32-1.3,1.31-2.53,3-4.19,3.65s-5.27.21-6.11.29l-.73.1c-.77.62,2.63,3.18,4.45,3.44,1.41.2,4.58.26,6.52-.75,4.06-2.08,6.19-5.71,9.58-8.86a6.94,6.94,0,0,1,6.09-2.15c2.77.25,5.13,1.42,7.52,2.36a25.15,25.15,0,0,0,5.89,1.87c.37.05.72.17,1.12.23,1.06.15,4.84.6,7-.31.35-.14,1-.56,1-.87,0-.62-4.81-.06-4.6-1.56A.75.75,0,0,1,462,232.33Z"
     id="path106"
     style="fill:#000000" />
  <path
     class="cls-1"
     d="M469,232.41a6.47,6.47,0,0,0-2,.4c-.24.24,0,.43.15.46s1.09.2,2,.39c1.52.31,3.25.72,3.07-.74C472.14,231.87,470.42,232.23,469,232.41Z"
     id="path108"
     style="fill:#000000" />
  <path
     class="cls-1"
     d="M504.66,186.05c.24,1.45.62,2,1.65,2.24a5.91,5.91,0,0,0,1.44-.05,6.06,6.06,0,0,0,1.81-.34c.68-.32-1.11-3.67-2.79-6.22-1.19-1.79-2.25-3.14-2.65-2.92-.25.14-.14.84-.11,1.7.05,1.09.27,2.5.43,3.72C504.53,184.91,504.57,185.58,504.66,186.05Z"
     id="path110"
     style="fill:#000000" />
  <path
     class="cls-1"
     d="M490.56,184.17c.06.55.07,1.8.17,2.87.07.83.38,1,1.08,1s.89-.22,1-1c.18-1.15.21-2.95.34-4.15.1-1,.16-2.49.3-3.87.11-.94.34-1.84.38-2.55s.06-1.25-.16-1.38c-.54-.32-3.88-.32-4,.36a9.3,9.3,0,0,0,.22,2c.11.88.16,1.8.24,2.38C490.36,181.32,490.41,182.73,490.56,184.17Z"
     id="path112"
     style="fill:#000000" />
  <path
     class="cls-1"
     d="M486,193.33a2.86,2.86,0,0,0-1.33-.24c-.53,0-1-.09-1.36-.11-1.24-.06-2.27-.18-3.4-.32a6.59,6.59,0,0,1-1.19-.07,17.26,17.26,0,0,0-2.81-.39c-.72-.07-1.37-.26-1.81.11-.17.14-.15.52-.2.64a5.27,5.27,0,0,0-.25,1.85c0,1.32.18,2.54.43,2.65a10,10,0,0,0,2.76-.55,24.35,24.35,0,0,1,3.07-.45c.52-.08,1.28-.12,2.06-.22.51-.06,1-.17,1.55-.22a11.72,11.72,0,0,0,2.63-.32,3,3,0,0,0,.14-1.59C486.22,193.8,486.24,193.53,486,193.33Z"
     id="path114"
     style="fill:#000000" />
  <path
     class="cls-1"
     d="M487.49,185.19c-.1-1.08-.11-2.22-.2-3.35a24.58,24.58,0,0,0-1.15-5.92l-.1-.13c-.46-.8-3.06.29-3.77.94-.26.23-.22,1.08-.19,2,0,.49,0,1,0,1.5.28,3,.2,8.7.74,9a6.31,6.31,0,0,0,2.29.15c.89,0,1.89,0,2.26-.35S487.59,186.35,487.49,185.19Z"
     id="path116"
     style="fill:#000000" />
  <path
     class="cls-1"
     d="M492.08,196.71c3.65-.63,3-6.21-.7-6C487,191,487.78,197.45,492.08,196.71Zm0-4.53c1.77.8,1.08,3.77-1.14,3.12A1.67,1.67,0,1,1,492.09,192.18Z"
     id="path118"
     style="fill:#000000" />
  <path
     class="cls-1"
     d="M490.6,214.11l1.4.07a20.9,20.9,0,0,0,2.12,0,2.27,2.27,0,0,0,.73-.08c.32-.21.19-1.17-.09-2.26a18.63,18.63,0,0,1-.34-2.19c-.25-1.8-.54-3.49-.68-5.48a29.05,29.05,0,0,0-.41-3.42c-.17-.49-.12-.91-.79-.89,0,0-2-.05-2.16.24-.27.62-.18,5.61-.27,6.61-.08.83-.13,1.37-.22,2.41-.21,2.24-.62,4.48-.56,4.66C489.47,214.06,489.9,214.08,490.6,214.11Z"
     id="path120"
     style="fill:#000000" />
  <path
     class="cls-1"
     d="M498.59,189.26c.53-.06,1.21,0,1.63-.08s.65-.27.65-.57c0-1.32-.16-2.4-.19-3.22-.1-2.29-.15-4.8-.22-6.59a11.43,11.43,0,0,0-.24-2.79c-.1-.29-.34-.39-.55-.52a3.27,3.27,0,0,0-1.33-.39c-.46,0-.66.64-.84,1.41-.12.49-.28,1-.33,1.44-.08.62-.24,1.27-.35,1.83a30.16,30.16,0,0,0-.52,3.57c-.06.78-.29,2-.32,2.57,0,1.16-.23,3,.18,3.26A6,6,0,0,0,498.59,189.26Z"
     id="path122"
     style="fill:#000000" />
  <path
     class="cls-1"
     d="M497.45,195.48a16.68,16.68,0,0,0,3.12.22c.93,0,1.84.13,2.57.16,1.18,0,2.34.09,3.43.24.52.07,1.54.17,2.42.26a4.45,4.45,0,0,0,1.53,0c.43-.15.58-1.18.46-2.38s-.09-2.16-.84-2.22c-.31,0-1.47.28-2.78.5-1.75.29-3.68.43-4.55.57-.36.06-1,.09-1.7.17s-1.26.19-1.86.24c-1.14.08-2,.13-2,.62C497.16,194.75,497.1,195.22,497.45,195.48Z"
     id="path124"
     style="fill:#000000" />
  <path
     class="cls-1"
     d="M513.89,122.56c-1.36-1.25-2.57-2.71-4-3.9-1.9-1.58-3.14-2.84-4.59-4.08-.55-.47-1.06-1-1.67-1.5s-1.56-1-2.48-1.64a2.86,2.86,0,0,0-2.94-.72c-.24.06-.56,0-.83.08-1.46.22-3.36.26-5.57.38a24,24,0,0,1-2.72-.05,13.1,13.1,0,0,0-4.22.42c-2.1.55-3,1.75-3,3.59a5.67,5.67,0,0,0,0,1.07,20.19,20.19,0,0,0,2.4,5.93,26.34,26.34,0,0,0,2.25,3.24c.21.24.65.14.7.21.37.62,1,.76,2.2.65a8.28,8.28,0,0,1,2.15-.36c1.08.16,1.34,1.26,1.75,1.81a7.08,7.08,0,0,0,1.08,1,3.41,3.41,0,0,0,1.47.48,8.7,8.7,0,0,0,2,0c1.53-.15,2-.94,2.68-.59.31.18.51.58.83.94a7.14,7.14,0,0,0,1,.88c1.42,1.12,2.94,1.15,4.78,1.31a24.63,24.63,0,0,0,5.51-.43,16.52,16.52,0,0,0,2.48-.48,8.89,8.89,0,0,0,2.81-1.25c.37-.28.68-.5.73-.91a2.83,2.83,0,0,0-.92-1.85A47.63,47.63,0,0,0,513.89,122.56Z"
     id="path126"
     style="fill:#000000" />
  <path
     class="cls-1"
     d="M494.21,135.72a19.69,19.69,0,0,0,7.85,1.15l1.34-.1c.26,0,.62,0,.92-.06,1.57-.27,3.65-.59,3.78-.7s.43-.69,0-.85a2.65,2.65,0,0,0-.77-.19c-.42,0-1,0-1.48-.08a19.18,19.18,0,0,1-2.2-.42,11.14,11.14,0,0,1-2.73-1,3.25,3.25,0,0,0-1.51-.68c-.52,0-1.33.1-2.18.13a6.72,6.72,0,0,1-3.22-.47,13.87,13.87,0,0,1-1.77-1.21c-.39-.31-.71-.66-1.08-.92a1.48,1.48,0,0,0-1.12,0c-.39.11-.82.07-1,.4C488.85,131.26,491.6,134.58,494.21,135.72Z"
     id="path128"
     style="fill:#000000" />
  <path
     class="cls-1"
     d="M501.29,86.69,500.1,87c-.36,0-.9,0-1.14.25-.44.33-.21,1.36-.44,2.17a56.53,56.53,0,0,1-1.58,5.76c-.45,1.11-.85,2.25-1.36,3.33s-.88,1.74-1.21,2.38c-.6,1.13-1.29,2.67-2,3.77-.16.25-.35.61-.5.92s-.33.84.17,1.07a3,3,0,0,0,1.46.31,21.29,21.29,0,0,0,2.29-.31c1.48-.07,1.45-.49,1.65-1.3.08-.35.57-1.3.73-1.76a10.22,10.22,0,0,1,.75-1.52c.39-.65.68-1.42,1-2.09,1-2,1.87-4,2.73-6.05a16.84,16.84,0,0,0,1.23-5c.07-1.62-.07-3.58-1.83-2.58A3.54,3.54,0,0,0,501.29,86.69Z"
     id="path130"
     style="fill:#000000" />
  <path
     class="cls-1"
     d="M490.2,51.51c-1.24-1-2.44.09-3-.14A3.41,3.41,0,0,1,486,50.24a2,2,0,0,0-1.81-.72c-1.11,0-1.45.7-2.5.8s-.86-.87-3-.54c-1.33.2-2.39,1.73-3.36,2.06-.65.21-2.31-.51-3.54,1.23-.85,1.19-.64,2.51.32,2.89.52.2,1.95-.42,3.33-.43a5,5,0,0,1,2,.65c.42.18,1.09.5,1.41.69a13.62,13.62,0,0,1,2.88,2.24c.73.83,1.05,1.5,1.41,1.52.79,0,1-1.29,1.77-2.39.92-1.34,2.16-2.53,3.47-1.7,2.31,1.47,4.42,4.65,6.1,6.72a45.23,45.23,0,0,1,3.32,4.58c.45.72,1.35,1.93,2,2.89s1.47,1.69,2.52.76c.71-.62.33-1.58.77-2.17.25-.35,1-.28,1.25-.54,1.1-1.22.4-1.56.22-2.89-.13-1,.89-1.22.83-2.38-.08-1.71-1.52-1.88-1.77-2.5s.36-1.1.54-1.7a2.66,2.66,0,0,0-.61-2.6,2.31,2.31,0,0,0-2.43-.76c-.56.13-.76.35-1.33.11-.21-.09-.47-.48-.83-.69a5,5,0,0,0-2-.58,2.92,2.92,0,0,0-1.46.31c-.24.13-.37.3-.64.35h-.17c-.64.09-.52-.29-1.66-.35-.78,0-1.74.54-2.13-.62C490.87,53.56,491.68,52.66,490.2,51.51Z"
     id="path132"
     style="fill:#000000" />
  <path
     class="cls-1"
     d="M472.86,64.8a10.36,10.36,0,0,1-.68.79,8,8,0,0,0-.61,1c-.31.55-.45,1-.08,1.26s1.09-.2,1.66.54a7.12,7.12,0,0,1,.5,1c.1.19.17.2.22.4.11.37,0,.7.12,1a1,1,0,0,0,.36.58c.47.4,2.36,0,3.43-.21a2.89,2.89,0,0,0,1.88-1c.24-.37.18-.87.5-1.26a2.19,2.19,0,0,0,.37-2.43c-.77-1.15-2.32-1-3.26-.78a4.23,4.23,0,0,1-1.26-.15c-.59-.09-1.14.19-1.35-.22a1.6,1.6,0,0,1,.72-2,3,3,0,0,1,2,.11c1,.29,1.58.33,1.52-.94a4.24,4.24,0,0,0-2.13-3.11c-1.18-.49-2-.79-2.32-.4a3.16,3.16,0,0,0-.46,2.14,4.09,4.09,0,0,1-.15,1.95C473.62,63.56,473.14,64.31,472.86,64.8Z"
     id="path134"
     style="fill:#000000" />
  <path
     class="cls-1"
     d="M420.85,14.8c-.23.27-.5.41-.1.91s1.27,1.31,1.95,2,.83.38,1,.18A71,71,0,0,1,439.45,7.7c.52-.18,2.21-.81,3.39-1.31a52.47,52.47,0,0,1,7.51-2c.31,0,.81-.1.59-.37s-4.3-1.85-6.29-1.58A23.08,23.08,0,0,0,436.59,4,69.89,69.89,0,0,0,426,10C425,10.9,421.07,14.53,420.85,14.8Z"
     id="path136"
     style="fill:#000000" />
  <path
     class="cls-1"
     d="M400.13,1.17A18.19,18.19,0,0,1,405,2.71a64.22,64.22,0,0,1,6.43,3.61,71.34,71.34,0,0,1,6.59,6c.68.79,1.13-.05,1.13-.05s.45-.41.93-.84c.78-.7,1.73-1.6,1.4-1.9-.15-.14-.31-.43-.58-.72-.47-.5-1.07-1.21-1.88-1.95A26.87,26.87,0,0,0,416.6,5c-.32-.22-.59-.55-.91-.8a16,16,0,0,0-5.44-3.14c-6.84-2-9.45-.58-9.93-.53S399,1,400.13,1.17Z"
     id="path138"
     style="fill:#000000" />
  <path
     class="cls-1"
     d="M393.86,55.07a1.15,1.15,0,0,0-.55-2.18l0,0-.05,0a.86.86,0,0,0-.52.21l.07,0A1.12,1.12,0,1,0,393.86,55.07Z"
     id="path140"
     style="fill:#000000" />
  <path
     class="cls-1"
     d="M403.26,54.88a1.34,1.34,0,1,0,.29-2.65l-.13,0a1.38,1.38,0,0,0-1.19,1.16A1.07,1.07,0,0,0,403.26,54.88Z"
     id="path142"
     style="fill:#000000" />
  <path
     class="cls-1"
     d="M404.8,47a1.22,1.22,0,0,0-.87-1.88h-.05a1.28,1.28,0,0,0-1.23,1.7C402.87,47.39,404.29,47.57,404.8,47Z"
     id="path144"
     style="fill:#000000" />
  <path
     class="cls-1"
     d="M401,56.66l-.18,0a1.17,1.17,0,1,0,.18,0Z"
     id="path146"
     style="fill:#000000" />
  <path
     class="cls-1"
     d="M400.73,48.57l-.13,0c-.75.1-1.07,1.11-.78,1.84a1.28,1.28,0,0,0,1.76.66A1.34,1.34,0,1,0,400.73,48.57Z"
     id="path148"
     style="fill:#000000" />
  <path
     class="cls-1"
     d="M399.08,44.75a1.24,1.24,0,0,0-.32,2.46h.05a1.25,1.25,0,0,0,1.35-1.32A1.07,1.07,0,0,0,399.08,44.75Z"
     id="path150"
     style="fill:#000000" />
  <path
     class="cls-1"
     d="M398,55.73c1.87.29,2.13-2.49.46-2.64h0C396.72,52.89,396.16,55.46,398,55.73Z"
     id="path152"
     style="fill:#000000" />
  <path
     class="cls-1"
     d="M396.43,48.8a1.41,1.41,0,0,0-1.9,1.34,1.32,1.32,0,0,0,.33,1,1.73,1.73,0,0,0,1.23.41l.06,0a1.5,1.5,0,0,0,1.15-2A1.23,1.23,0,0,0,396.43,48.8Z"
     id="path154"
     style="fill:#000000" />
  <path
     class="cls-1"
     d="M395.57,59.69a1.35,1.35,0,0,0,.31-2.67l-.11,0c-.89.08-1.35.32-1.42,1.3A1.18,1.18,0,0,0,395.57,59.69Z"
     id="path156"
     style="fill:#000000" />
  <path
     class="cls-1"
     d="M406.89,49h-.13a1.22,1.22,0,1,0,.34,2.35C408,51.09,408.4,49.22,406.89,49Z"
     id="path158"
     style="fill:#000000" />
  <path
     class="cls-1"
     d="M408.69,46.32c.37-.13.74-.35,1.24-.58a18.62,18.62,0,0,1,2.93-1.16c.52-.15,1-.47.86-1-.23-.93-1.1-.49-1.65-.31-.34.11-.66.25-1,.4a19.51,19.51,0,0,0-2.1.92c-.3.16-.91.5-1.07.63-.48.37-.17,1.17.78,1.17Z"
     id="path160"
     style="fill:#000000" />
  <path
     class="cls-1"
     d="M439,56.11c1.64.2,2.33-2.08.72-2.59l-.12,0C437.9,53.13,437.43,55.92,439,56.11Z"
     id="path162"
     style="fill:#000000" />
  <path
     class="cls-1"
     d="M440.52,46.71l-.12-.07c-1.28-1.35-2.83.65-1.86,1.78C439.86,49.93,441.35,48.05,440.52,46.71Z"
     id="path164"
     style="fill:#000000" />
  <path
     class="cls-1"
     d="M441.41,60.4c2,.14,1.4-2.33.13-2.63h0C439.75,57.67,440.05,60.31,441.41,60.4Z"
     id="path166"
     style="fill:#000000" />
  <path
     class="cls-1"
     d="M442.61,49.83l-.19,0a1.26,1.26,0,1,0,.27,2.5C444.26,52.07,443.76,49.74,442.61,49.83Z"
     id="path168"
     style="fill:#000000" />
  <path
     class="cls-1"
     d="M444.9,57.16c1.22-.66.27-2.56-1-2.53l-.19,0C442,55.25,443.33,58,444.9,57.16Z"
     id="path170"
     style="fill:#000000" />
  <path
     class="cls-1"
     d="M446,47.57a1.14,1.14,0,0,0-1.51-.94c-.74.22-.85.85-.68,1.5l.08.12C444.22,49.47,446.25,48.95,446,47.57Z"
     id="path172"
     style="fill:#000000" />
  <path
     class="cls-1"
     d="M446.2,61.55a1.14,1.14,0,0,0,1.33-1.17,1.23,1.23,0,0,0-1-1.32l-.12,0A1.24,1.24,0,0,0,446.2,61.55Z"
     id="path174"
     style="fill:#000000" />
  <path
     class="cls-1"
     d="M448.4,52a1.36,1.36,0,0,0-1.2-1.4l-.24,0c-1.76.09-1.4,2.84.09,2.74A1.33,1.33,0,0,0,448.4,52Z"
     id="path176"
     style="fill:#000000" />
  <path
     class="cls-1"
     d="M449.18,57.92a1.33,1.33,0,1,0-.12-2.64l-.1,0a1.28,1.28,0,0,0-1.29,1.38A1.39,1.39,0,0,0,449.18,57.92Z"
     id="path178"
     style="fill:#000000" />
  <path
     class="cls-1"
     d="M436.93,52.35c1.45-.14,1.51-2.47-.12-2.34C435.6,50.17,435.32,52.5,436.93,52.35Z"
     id="path180"
     style="fill:#000000" />
  <path
     class="cls-1"
     d="M436,44.56a11.72,11.72,0,0,0-3.28-1.22,12.31,12.31,0,0,0-2.14-.28l-.17,0c-.68.2-.74.75-.48,1.08s.91.49,1.88.51a6.9,6.9,0,0,1,3,1c.49.22,1.09.54,1.46,0C436.73,45,436.49,44.83,436,44.56Z"
     id="path182"
     style="fill:#000000" />
  <path
     class="cls-1"
     d="M466,74.13a19.72,19.72,0,0,0-3.81,1.64c-2.08.94-3.42,1.56-3.49,1.93s.16.49.68.72a20.2,20.2,0,0,1,6.65,4.93,64.51,64.51,0,0,1,6.47,9.21c1,1.58,1.8,3.09,2.51,4.26,1.07,1.76,1.82,2.84,1.88,2.93.29.34.61.77.87.84.9.23.84-.46.4-1.51a4.61,4.61,0,0,1-.07-.52c-.58-2.72.05-3.57.19-4a11.14,11.14,0,0,1,.53-1.46,11,11,0,0,1,1.81-2c1.18-1.13,2.49-2.24,3.7-3.27.45-.39.86-.84,1.27-1.23s.93-.72,1.37-1.16.61-.72.92-1.09.65-.67,1-1c.49-.53,1.42-1.46,1.51-2a4.58,4.58,0,0,0-.61-2.36c-.27-.61-.52-1.05-.75-1.47s-.17-.79-.8-.83-2.31.95-4.63-.55a5,5,0,0,1-1.06-1.32c-.3-.64-.49-1.42-.88-1.58a2,2,0,0,0-1.16,0c-.41.07-.9.13-1.37.26-1,.27-2.08.51-3,.69a12,12,0,0,1-2.42,0,17.49,17.49,0,0,1-2.34-.33A14.3,14.3,0,0,0,466,74.13Z"
     id="path184"
     style="fill:#000000" />
  <path
     class="cls-1"
     d="M481.92,98.46H482c.57,0,.94-.67,1.66-2.47,1.16-3,1.06-3.41.79-3.72a.61.61,0,0,0-.62-.18,7.25,7.25,0,0,0-1.7,1.44l0,0A4.49,4.49,0,0,0,481,95.07a3.26,3.26,0,0,0-.06,1.62C481.17,98.4,481.73,98.44,481.92,98.46Z"
     id="path186"
     style="fill:#000000" />
  <path
     class="cls-1"
     d="M466.78,90.19a10.79,10.79,0,0,0-1.85.17c-.85.05-1.69,0-1.86.31s.72,6.45,2,8.14a5.49,5.49,0,0,0,2.85,1.83,12.23,12.23,0,0,0,2.79.26,8.5,8.5,0,0,0,2.45-.14c.37-.26-2-3.88-2.94-5.75C469.64,93.8,467.57,90.37,466.78,90.19Z"
     id="path188"
     style="fill:#000000" />
  <path
     class="cls-1"
     d="M459.76,82a18,18,0,0,0-2.07-.83,8.32,8.32,0,0,0-2.72-.66,15.27,15.27,0,0,0-2,.32,29.67,29.67,0,0,1-5.45.41c-1.48-.06-2.86-.39-4.34-.49-1.69-.12-3.37-.1-5.23-.1a29.16,29.16,0,0,0-4.48.62c-1,.19-2.47.3-3.27.54a39.2,39.2,0,0,1-6.59,1.45,24,24,0,0,1-4,.33,21.35,21.35,0,0,1-3.74-.79c-1.77-.35-5.09-1.36-7-.73-1.17.39-1.57.83-1.46,2.08a6.21,6.21,0,0,0,.83,2.65c.38.46.9.47,1.13,1,.49,1.1,0,3.11.33,5.66a27.11,27.11,0,0,0,1.65,6.29c.59,1.34,1.51,3.25,2.52,6a31.16,31.16,0,0,0,1.85,3c-2,.68-4,1.39-5.93,2s-3.28,1-4.12,1.3l-1.52.56c-.7.24-1.25.5-.93,1.24a2.42,2.42,0,0,0,1.93,1.58c1.19,0,2.83-.88,3.84-1.07.12,0,.37-.18.81-.33s1.06-.24,1.73-.44c1.08-.31,2.38-.78,3.84-1.27,4.81-1.64,10.77-3.86,12.12-4.42,1-.43,1.75-.81,2.35-1.09a12.72,12.72,0,0,1,1.55-.55c.62-.19,1.32-.52,2.14-.77s8.19-3.23,9-3.48,5.82-1.71,7.6-1.58a14.09,14.09,0,0,1,3,.38,19.61,19.61,0,0,1,2.76,1l.21.13c.44.32-1-.19-1-.19a17.88,17.88,0,0,0-2.35-.57,16.7,16.7,0,0,0-2.91,0c-.38.07-.93.18-2,.43a43.65,43.65,0,0,0-5,1.54c-.31.12-2.66,1-5.68,2.36-2,.86-4,1.91-6,2.81-1.4.65-2.77,1.21-3.75,1.74-.19.1-1.37.62-2.91,1.23-3.07,1.21-7.58,3-8.21,3.26-.41.14-2,.62-3.77,1-2.27.54-4.87,1-5.72,1.12-1.52.19-1.71.25-1.83.69a3.35,3.35,0,0,0,.31,2.09A2.73,2.73,0,0,0,407,120c.22,0,1.92-.21,3.8-.61,2.41-.51,5.13-1.27,5.63-1.42l.14,0c0,1.81-.1,4.22-.09,4.48a26.43,26.43,0,0,0,.24,2.72.56.56,0,0,0,.53.36c.22,0,.77,0,1,0s4.73-.55,4.73-.55.88-.07,1.63-.17a5.72,5.72,0,0,0,2.26-.62c.31-.37.12-7,.14-10.35l.54-.27c.29-.14,2.94-1.22,6.45-2.76a126.06,126.06,0,0,1,12.35-5.06,20.49,20.49,0,0,1,5.81-1.09,4.54,4.54,0,0,1,2,.23,6.11,6.11,0,0,1,1.59.85l0,0,.41-.37a8.72,8.72,0,0,1,4.25-2.46,9.1,9.1,0,0,1,1.42-.2,9.09,9.09,0,0,0-1.56-1.63c-.08,0-.82-.65-1.59-1.08A16,16,0,0,0,454.88,98a15.75,15.75,0,0,0-6.19-.7,34.86,34.86,0,0,0-4.57,1c-1.16.32-2.43.62-3.63,1-1.56.55-3.09,1.26-4.58,1.83-2,.77-4,1.5-5.42,2.1l-3,1.26c0-3.17.21-9.27.07-11.3,0-3.1.14-3.9-.41-4.26a13.78,13.78,0,0,0-2.5-.41,23.26,23.26,0,0,0-2.84.07c-.94.07-2.86.48-3,.85a13.59,13.59,0,0,0-.32,2.75,18.68,18.68,0,0,1,0,1.95c-.14,1.23-.33,2.69-.54,3.8a10.64,10.64,0,0,1-.48,1.86c-.13.35-.28.69-.38,1-.82,2.1-1.94,1.66-2.64.84a12.77,12.77,0,0,1-1-1.66,13.55,13.55,0,0,1-1.71-4.84,21.83,21.83,0,0,1-.55-6,1.94,1.94,0,0,1,.29-.95.87.87,0,0,1,.33-.28,9.38,9.38,0,0,1,2.22-.33c1.31-.22,2.76-.62,3.4-.78a22.57,22.57,0,0,1,6.93-1c2.53,0,3.58.61,7.38.8a79.64,79.64,0,0,0,8.94,0,50.89,50.89,0,0,1,5.5-.4,33,33,0,0,1,3.34.46c1.42.23,2.84,0,4.47.21a38.09,38.09,0,0,0,8.18.06c1-.11,2.71-.27,2.68-.56C464.72,85.63,461.75,83,459.76,82ZM416,105a9.2,9.2,0,0,0,.6-1.11c.54-1.13,1.4-3,2.31-5,1.09-2.36,2.26-4.88,3-6.66.28-.67.84-2.26,1.55-2.63,1.3-.68,2.29.21,1.61,1.54-.22.45-.41,1-.67,1.61s-.49,1-.65,1.31c-.65,1.41-1,2.13-1.59,3.62-.46,1.09-.7,1.91-1.35,3.16-.55,1.07-1.12,2.27-1.73,3.34-.29.51-1.11,2.26-1.61,2.53C416.36,107.26,415.5,106,416,105Z"
     id="path190"
     style="fill:#000000" />
  <path
     class="cls-1"
     d="M474,104.72c-4.1,0-6.11.14-8.58,0a15.35,15.35,0,0,0-4.57,0,7.85,7.85,0,0,0-3.79,2.38c-1.18,1.07-2.08,1.63-1.66,2.77a1.41,1.41,0,0,0,.6.7,7.83,7.83,0,0,1,1,.65c.58.51.91,1.33,2.11,1a3.14,3.14,0,0,0,1.23-.89c.7-.68,1.06-1.64,2.07-2.27a3.56,3.56,0,0,1,1-.52c.46-.13,1-.11,1.38-.22a10.11,10.11,0,0,1,3.92.12c2.62.31,5.4.55,7.55.85,1.46.2,3.25.35,4.83.41a6.75,6.75,0,0,0,3.32-.44,7.86,7.86,0,0,0,2.6-2.31c1.44-1.78,3.67-6.41,5.4-9.87.4-.79.87-2,1.37-3.08a16,16,0,0,0,1.74-4.83c.31-2.89-1.16-4.48-.13-5.33s2.37.25,3.64-.19,3-1.32,3.22-1.85a12.57,12.57,0,0,0-1.4-3,73.89,73.89,0,0,0-4.09-7.05c-.69-1-1.22-2-1.73-2.63s-1-1.45-1.44-2.12c-.6-.86-1.27-1.55-1.88-2.46-1.07-1.57-3.82-4.57-3.89-4.35-.23-.2-1.22.71-1.81,2.06a11.19,11.19,0,0,0-.59,3.4,2.57,2.57,0,0,1-.28,1.19c-.61,1.12-1.79,2.05-1.5,2.59s.9.41,1.1.82a4.15,4.15,0,0,1,.34.69c.05.19,0,.36.07.56a3.3,3.3,0,0,0,.68,1.81c1.44,1.4,3.78,0,5.05.75a3.1,3.1,0,0,1,.65.72c.08.17.17.36.26.57.75,1.69,1.76,4.57,2.4,6.37.39,1.13.63,1.35.43,1.88a4.4,4.4,0,0,1-1.47,1.3c-.94.51-2.69,1.52-3.22,2.46a19.74,19.74,0,0,0-1.43,2.94c-.37,1-.83,2.63-1.25,3.78s-.76,2.5-1.44,4.41c-.26.69-.47,1.34-.72,2.09-.55,1.68-1,3-1.78,3.66a3.41,3.41,0,0,1-1,.63,6,6,0,0,1-1.5.1C479.06,104.88,476.44,104.74,474,104.72Zm14-36.77a3.31,3.31,0,0,1-1-.18,1.25,1.25,0,0,1-.68-1.14c-.11-.86.19-1.13.39-1.19a1.82,1.82,0,0,1,1.18-.11c.29.09.46.09.7.15s1.59,0,1.61,1S488.37,68,488,67.95Z"
     id="path192"
     style="fill:#000000" />
  <path
     class="cls-1"
     d="M522.85,139.53a7.47,7.47,0,0,0-4.33-1.7c-2.8-.18-5.91.6-9,1.2-1.82.34-3.66.62-5.39.86-3.43.47-7.75.39-10.07-.61a16.48,16.48,0,0,1-3.28-1.59,18.31,18.31,0,0,1-2.79-2.56,14.62,14.62,0,0,1-1.69-2.2c-.36-.67-1.26-1.91-1.88-3.29-1.19-2.64-2.59-4.82-4.37-4-.82.38-1,2-.91,3.93,0,.49.14,1,.14,1.56.1,2.63.12,5.39.21,6.39.3,3.4.37,4.38.46,6.94,0,.83.14,1.84.21,2.91s.19,2.71.27,4.53c.05,1.32-.07,2.66,0,4,0,.86.19,2.28.26,3.85.07,1.4,0,2.92.1,4.05s.23,1.76.44,1.85.59,0,1.1-.17,1.46-.46,2.48-.7a39.84,39.84,0,0,1,5.28-1,7.62,7.62,0,0,1,2.23-.13c.16,0,2.73.1,2.9.13.8.1,1.51.09,2.28.21a6.6,6.6,0,0,0,2.27.2,13.41,13.41,0,0,0,1-1.84,19.37,19.37,0,0,1,1.3-1.85,17.79,17.79,0,0,1,3.87-3.9,44.54,44.54,0,0,1,10-4.84,20.08,20.08,0,0,0,2.17-1.05c.42-.22.95-.4,1.37-.65,2-1.17,3.91-2.71,4.68-4.74A5.11,5.11,0,0,0,522.85,139.53Zm-2.13,5.05a4.88,4.88,0,0,1-2.35,2.53,23,23,0,0,1-3,1.73c-2,.9-4.11,1.61-6.11,2.64a41.14,41.14,0,0,0-6.8,4.32,44.33,44.33,0,0,0-3.25,3.12c-.75.46-.76-.54-.79-1.54,0-.33-.08-.7-.09-1.07,0-1.44-.25-3-.25-3.64,0-1.64-.19-3.24-.26-4.84a9.74,9.74,0,0,0-.08-1.58,2.14,2.14,0,0,1,.36-1.88,2.78,2.78,0,0,1,1.2-.57c1.09-.33,2.49-.38,3.72-.62,2.28-.43,4.23-1,6.57-1.19.62-.06,1.8-.21,3.18-.44a24.12,24.12,0,0,1,5.42-.54,3,3,0,0,1,2.05,1.08A2.6,2.6,0,0,1,520.72,144.59Z"
     id="path194"
     style="fill:#000000" />
  <path
     class="cls-1"
     d="M509.83,145.65a3.26,3.26,0,0,0-1.84.09c-.52.11-1,.15-1.57.22-.89.13-1.76.33-2.62.49-.43.08-.83.27-1.17.33-.58.11-1,.11-1.34.49a1.49,1.49,0,0,0-.11,1,13.61,13.61,0,0,1,.12,1.6c0,.47,0,1,0,1.3a.68.68,0,0,0,.18.43c.23.15.9-.31,1.7-.77a22.38,22.38,0,0,1,2.88-1.38c.7-.27,1.69-.72,2.53-1.1s1.74-.53,1.89-.81,0-.57-.13-1A1.42,1.42,0,0,0,509.83,145.65Z"
     id="path196"
     style="fill:#000000" />
  <path
     class="cls-1"
     d="M520.79,188.25c0,.07,0,.2.07.37.4,1.14,1.11,2.08,2.22.4.29-.54.57-1.09.86-1.67l0-.07s.7-1.4,1.46-3c.57-1.21,1.13-2.43,1.66-3.68l.43-1a.87.87,0,0,0,0-.14,2.85,2.85,0,0,0-.79-2.87,2.32,2.32,0,0,1-.2-.28h0c-.46-.59-1.9-2.87-2.41-3.5a17.2,17.2,0,0,1-1.35-2.09c-.51-.85-1-1.6-1.56-2.48-.39-.66-.82-1.28-1.22-1.9-.51-.78-1.18-2.05-1.44-2.37a34,34,0,0,1-2.11-3.44c-.36-.7-.78-1.43-1.16-2.12s-.64-1.15-.89-1.7c-.15-.35-.28-.62-.51-.7a1.34,1.34,0,0,0-.94.19c-.57.25-1.25.67-1.91,1.05-1,.59-2.13,1.29-2.62,1.65a16.23,16.23,0,0,0-4.84,5.2c-.7,1.4-.35,1.67.15,1.91a36.11,36.11,0,0,1,4.14,2.43,40.23,40.23,0,0,1,5.33,4.82,22.22,22.22,0,0,1,2.27,2.75c.48.77,1.07,1.42,1.56,2.22a18,18,0,0,1,1.36,2.62,30.68,30.68,0,0,1,1.51,4C520.22,186.15,520.55,187,520.79,188.25Z"
     id="path198"
     style="fill:#000000" />
  <path
     class="cls-1"
     d="M513,204.91h0q2.24-3,4.37-6.21c.76-1.54,1.52-4.29.59-8.45-.16-.72-.27-1.27-.34-1.69a20.21,20.21,0,0,0-.53-2c-.38-1.22-.86-2.34-1.34-3.57a26.74,26.74,0,0,0-2.67-4.74,21.59,21.59,0,0,0-3.14-3.95,19.88,19.88,0,0,0-4.05-3.36c-1-.53-1.95-1.14-3-1.68-.58-.29-1.76-.85-2.75-1.23a19.76,19.76,0,0,0-3.67-.79,30.24,30.24,0,0,0-6-.22,34.46,34.46,0,0,0-7.2,1.52,18.22,18.22,0,0,0-4.84,2.26,28,28,0,0,0-5.81,5.13c-.26.33-.47.73-.74,1.07a29.82,29.82,0,0,0-1.9,2.74c-.37.62-.81,1.36-1.15,2a21.54,21.54,0,0,0-1,2.45c-.26.84-.56,1.69-.76,2.56a38.84,38.84,0,0,0-.89,4.64,31.51,31.51,0,0,0,.47,10.29,23.66,23.66,0,0,0,1.84,5.12,28.12,28.12,0,0,0,2.54,4.46,26,26,0,0,0,3.57,3.82c.67.61,1.31,1.3,2,1.82a22.69,22.69,0,0,0,3.68,2.25,31,31,0,0,0,5.17,2l.07,0a32.84,32.84,0,0,0,8.76,1.42l.3-.23.63-.48.16-.12,8.91-6.68c.6-.8.28-.74-.06-.57a22.07,22.07,0,0,1-6.8,2.87,19.33,19.33,0,0,1-8.23.17,28.64,28.64,0,0,1-9.76-4.22,19.07,19.07,0,0,1-7.47-9.64,25.07,25.07,0,0,1-1.63-8.24A28.71,28.71,0,0,1,473,183.67a20.7,20.7,0,0,1,9.1-9.86,23.57,23.57,0,0,1,10.22-2.34,21.75,21.75,0,0,1,7.95,1.37,17.3,17.3,0,0,1,6.22,3.94c3.86,3.93,7.18,11.23,7.54,15.64a26.59,26.59,0,0,1-1.65,12.73C512.24,205.86,513,204.91,513,204.91Z"
     id="path200"
     style="fill:#000000" />
  <path
     class="cls-1"
     d="M377.83,34.49a33.89,33.89,0,0,1,2.82-4.2A14.58,14.58,0,0,1,387,25.63c.66-.27,1.78-.62,2.57-.86,11.13-3.51,26.82,8.1,27.18,8.38s.65.43.88.26c0,0,1.69-2.32,1.47-2.79-.13-.28-2.42-4-8.86-8.43-3.64-2.51-7.67-5.39-13.82-5.34-15.4.11-19.15,14.78-19.3,15.4S376.67,36.16,377.83,34.49Z"
     id="path202"
     style="fill:#000000" />
  <path
     class="cls-1"
     d="M447.62,11.46A34.45,34.45,0,0,0,439,12.82c-13.5,4.21-18.84,13.54-18.84,13.54-.68.55.74,1.83,1,2.18s.55.54,1.14,0a35.84,35.84,0,0,1,13.62-8.37c1.5-.53,3.22-.91,4.68-1.27a45.08,45.08,0,0,1,8.69-1,26.11,26.11,0,0,1,5.45.25c6.12,1.17,11.21,8.38,10.79,6.91a22.78,22.78,0,0,0-4.58-8.88h0A13.29,13.29,0,0,0,456,12.6,19,19,0,0,0,447.62,11.46Z"
     id="path204"
     style="fill:#000000" />
  <path
     class="cls-1"
     d="M473.56,115.33c-1-.05-1.86.12-2.69,0-1.24-.18-3.87-3.48-4.82-5.26h0a2.29,2.29,0,0,0-.66.08,5.45,5.45,0,0,1-1,.18l-.41.05-.23.15-.24.15a3.16,3.16,0,0,0-.82.9,8.22,8.22,0,0,1-.92,1.11l-.12.12a6.93,6.93,0,0,1-.85.72c.13.47.25,1,.36,1.47l.2.6s2.45,6.23,8.44,7.39c5,1,6.61-2.2,7.1-3.68A3.36,3.36,0,0,0,473.56,115.33Zm-2.17,4.94a7,7,0,0,1-5.31-2.61c-.53-.73-3.48-5.16-2.18-5.77,1,.09,1.77,2.06,2.14,2.88,1.09,2.4,2.44,3.76,5.2,3.76.72,0,3-.4,3,.58S472.06,120.32,471.38,120.27Z"
     id="path206"
     style="fill:#000000" />
  <path
     class="cls-1"
     d="M377,22.8A34.23,34.23,0,0,1,379.92,18l.4-.49A14.63,14.63,0,0,1,389.86,13H390c12.6.05,21.61,6.55,25.33,9.5,1,.81,1.7,1.27,1.82,1.35.58.37.61,0,.61,0s2.29-2.79,2.44-3,.26-.53.15-.72a33.77,33.77,0,0,0-7.48-7.76c-4.23-3.14-11.23-5.64-16.15-5.49A25.56,25.56,0,0,0,384,10.18a16.6,16.6,0,0,0-6.45,6.88h0a17,17,0,0,0-1.31,3.5C376.06,21.28,375.81,24.46,377,22.8Z"
     id="path208"
     style="fill:#000000" />
  <path
     class="cls-1"
     d="M520.28,59.3a126.73,126.73,0,0,0-52.57-39.83,25.94,25.94,0,0,1,1.8,6.43A120.37,120.37,0,1,1,300.45,136,123.9,123.9,0,0,1,372.22,24.59l.1-1.49a11.88,11.88,0,0,1,.79-3.85c.06-.27.14-.55.23-.83v0l0-.13A131.74,131.74,0,0,0,323.75,56a128,128,0,0,0-28.53,80,125.59,125.59,0,1,0,251.19,0A124.4,124.4,0,0,0,520.28,59.3Z"
     id="path210"
     style="fill:#000000" />
</svg>
